<svg xmlns="http://www.w3.org/2000/svg" viewBox="0 0 512 512" role="img" aria-label="Karma favicon">
  <defs>
    <radialGradient id="bg" cx="50%" cy="36%" r="72%">
      <stop offset="0" stop-color="#2d1b5e"/>
      <stop offset="0.58" stop-color="#150d30"/>
      <stop offset="1" stop-color="#080511"/>
    </radialGradient>
    <linearGradient id="gold" x1="132" y1="92" x2="382" y2="418" gradientUnits="userSpaceOnUse">
      <stop offset="0" stop-color="#ffe9a8"/>
      <stop offset="0.55" stop-color="#c9a044"/>
      <stop offset="1" stop-color="#8f6b22"/>
    </linearGradient>
    <filter id="shadow" x="-20%" y="-20%" width="140%" height="150%">
      <feDropShadow dx="0" dy="14" stdDeviation="16" flood-color="#000" flood-opacity="0.46"/>
    </filter>
  </defs>
  <rect width="512" height="512" rx="104" fill="url(#bg)"/>
  <circle cx="256" cy="256" r="170" fill="none" stroke="url(#gold)" stroke-width="8" opacity="0.26"/>
  <circle cx="256" cy="256" r="120" fill="none" stroke="url(#gold)" stroke-width="4" opacity="0.18"/>
  <path d="M256 68v376M68 256h376M123 123l266 266M389 123L123 389" stroke="#f5dfa0" stroke-width="3" opacity="0.13"/>
  <g filter="url(#shadow)">
    <path d="M256 92l42 108 114-10-88 74 45 106-97-60-97 60 45-106-88-74 114 10Z" fill="url(#gold)"/>
    <circle cx="256" cy="256" r="58" fill="#150d30" stroke="#ffe9a8" stroke-width="10"/>
    <path d="M228 288V224h30v24l34-24v34l-32 20 35 10v32l-37-14v22Z" fill="#ffe9a8"/>
  </g>
  <circle cx="144" cy="144" r="8" fill="#f5dfa0" opacity="0.62"/>
  <circle cx="392" cy="156" r="6" fill="#f5dfa0" opacity="0.52"/>
  <circle cx="374" cy="374" r="7" fill="#f5dfa0" opacity="0.48"/>
</svg>
